<svg width="272" height="167" viewBox="0 0 272 167" fill="none" xmlns="http://www.w3.org/2000/svg">
<path d="M0 135.479V112.14L46.5637 1.82156H74.5702V112.14H86.7519V135.479H74.5702V165.079H49.4099V135.479H0ZM23.5665 112.14H49.4099V50.7761L23.5665 112.14Z" fill="#D2D7E1"/>
<path d="M96.3152 125.916V40.9852C96.3152 27.9306 99.6926 17.8361 106.448 10.7017C113.203 3.56723 122.842 0 135.365 0C147.888 0 157.489 3.56723 164.168 10.7017C170.923 17.8361 174.301 27.9306 174.301 40.9852V125.916C174.301 138.97 170.923 149.065 164.168 156.199C157.489 163.334 147.888 166.901 135.365 166.901C122.842 166.901 113.203 163.334 106.448 156.199C99.6926 149.065 96.3152 138.97 96.3152 125.916ZM122.045 127.509C122.045 138.287 126.485 143.676 135.365 143.676C144.169 143.676 148.571 138.287 148.571 127.509V39.3913C148.571 28.6896 144.169 23.3388 135.365 23.3388C126.485 23.3388 122.045 28.6896 122.045 39.3913V127.509Z" fill="#D2D7E1"/>
<path d="M184.889 135.479V112.14L231.452 1.82156H259.459V112.14H271.641V135.479H259.459V165.079H234.299V135.479H184.889ZM208.455 112.14H234.299V50.7761L208.455 112.14Z" fill="#D2D7E1"/>
</svg>
