<svg width="35" height="27" viewBox="0 0 35 27" fill="none" xmlns="http://www.w3.org/2000/svg">
<path d="M3.10723 24.6725C1.08547 22.5128 0 20.0906 0 16.1641C0 9.25466 4.82278 3.06186 11.8361 0L13.589 2.72033C7.04279 6.28164 5.763 10.903 5.25265 13.8168C6.30671 13.268 7.68661 13.0766 9.03903 13.2029C12.5801 13.5326 15.3713 16.4562 15.3713 20.0906C15.3713 21.9231 14.6475 23.6805 13.3591 24.9763C12.0707 26.272 10.3233 27 8.50121 27C7.49358 26.9911 6.49777 26.7808 5.57174 26.3812C4.64571 25.9816 3.80795 25.4008 3.10723 24.6725ZM22.736 24.6725C20.7142 22.5128 19.6287 20.0906 19.6287 16.1641C19.6287 9.25466 24.4515 3.06186 31.4649 0L33.2177 2.72033C26.6715 6.28164 25.3917 10.903 24.8814 13.8168C25.9354 13.268 27.3153 13.0766 28.6678 13.2029C32.2088 13.5326 35 16.4562 35 20.0906C35 21.9231 34.2762 23.6805 32.9878 24.9763C31.6994 26.272 29.952 27 28.1299 27C27.1223 26.9911 26.1265 26.7808 25.2005 26.3812C24.2744 25.9816 23.4367 25.4008 22.736 24.6725Z" fill="#0487FF"/>
</svg>
