<svg width="24" height="31" viewBox="0 0 24 31" fill="none" xmlns="http://www.w3.org/2000/svg">
<path d="M23.5714 12.4476C23.5714 6.0469 18.3913 0.857117 12 0.857117C5.60876 0.857117 0.428589 6.0469 0.428589 12.4476C0.428589 17.009 3.23039 22.5147 8.76047 29.0531C10.2737 30.8423 12.9508 31.066 14.74 29.5528C14.9201 29.4004 15.0872 29.2333 15.2396 29.0532C20.7696 22.5147 23.5714 17.009 23.5714 12.4476ZM13.0794 27.5894C12.3746 28.1855 11.3199 28.0974 10.7238 27.3926C5.55011 21.2755 3.00002 16.2644 3.00002 12.4476C3.00002 7.466 7.02999 3.42855 12 3.42855C16.97 3.42855 21 7.466 21 12.4476C21 16.2644 18.4499 21.2755 13.2762 27.3926C13.2162 27.4635 13.1503 27.5294 13.0794 27.5894ZM6.85716 12.4285C6.85716 9.58896 9.16043 7.28569 12 7.28569C14.8396 7.28569 17.1429 9.58896 17.1429 12.4285C17.1429 15.2681 14.8396 17.5714 12 17.5714C9.16043 17.5714 6.85716 15.2681 6.85716 12.4285ZM9.42859 12.4285C9.42859 13.848 10.5806 15 12 15C13.4194 15 14.5714 13.848 14.5714 12.4285C14.5714 11.0091 13.4194 9.85712 12 9.85712C10.5806 9.85712 9.42859 11.0091 9.42859 12.4285Z" fill="#FC6A20"/>
</svg>
