<svg width="20" height="20" viewBox="0 0 20 20" fill="none" xmlns="http://www.w3.org/2000/svg">
<path d="M16.4286 8.58176C16.4286 5.02579 13.5507 2.14258 9.99998 2.14258C6.44928 2.14258 3.57141 5.02579 3.57141 8.58176C3.57141 11.1158 5.12797 14.1746 8.20023 17.807C9.04091 18.801 10.5282 18.9253 11.5222 18.0846C11.6222 18 11.7151 17.9071 11.7997 17.807C14.872 14.1746 16.4286 11.1158 16.4286 8.58176ZM10.5996 16.9938C10.2081 17.325 9.62217 17.2761 9.29099 16.8845C6.4167 13.4861 4.99998 10.7022 4.99998 8.58176C4.99998 5.81418 7.23886 3.57115 9.99998 3.57115C12.7611 3.57115 15 5.81418 15 8.58176C15 10.7022 13.5833 13.4861 10.709 16.8845C10.6756 16.9239 10.6391 16.9605 10.5996 16.9938ZM7.14284 8.57115C7.14284 6.9936 8.42243 5.71401 9.99998 5.71401C11.5775 5.71401 12.8571 6.9936 12.8571 8.57115C12.8571 10.1487 11.5775 11.4283 9.99998 11.4283C8.42243 11.4283 7.14284 10.1487 7.14284 8.57115ZM8.57141 8.57115C8.57141 9.35972 9.21141 9.99972 9.99998 9.99972C10.7886 9.99972 11.4286 9.35972 11.4286 8.57115C11.4286 7.78258 10.7886 7.14258 9.99998 7.14258C9.21141 7.14258 8.57141 7.78258 8.57141 8.57115Z" fill="#FC6A20"/>
</svg>
