<svg width="20" height="20" viewBox="0 0 20 20" fill="none" xmlns="http://www.w3.org/2000/svg">
<path d="M5.80557 2.85742L14.4118 2.85869C15.5367 2.87234 16.1236 2.99791 16.7324 3.32346C17.3225 3.63904 17.7898 4.10641 18.1054 4.6965C18.4513 5.34328 18.5714 5.9654 18.5714 7.2344V12.7662C18.5714 14.0352 18.4513 14.6573 18.1054 15.3041C17.7898 15.8941 17.3225 16.3615 16.7324 16.6771C16.0856 17.023 15.4635 17.1431 14.1945 17.1431H5.80557C4.53657 17.1431 3.91444 17.023 3.26767 16.6771C2.67758 16.3615 2.21021 15.8941 1.89463 15.3041C1.54873 14.6573 1.42859 14.0352 1.42859 12.7662L1.42986 7.01704C1.4435 5.89213 1.56907 5.30523 1.89463 4.6965C2.21021 4.10641 2.67758 3.63904 3.26767 3.32346C3.91444 2.97756 4.53657 2.85742 5.80557 2.85742ZM16.9194 5.52029L12.0203 10.4187C10.9417 11.4973 9.21533 11.5332 8.09355 10.5266L7.97971 10.4187L3.08061 5.52029C2.91674 5.88799 2.85716 6.30856 2.85716 7.2344V12.7662C2.85716 13.8195 2.93427 14.2188 3.15436 14.6303C3.3368 14.9715 3.60025 15.2349 3.94138 15.4174C4.30449 15.6116 4.6581 15.6944 5.45987 15.7113L5.80557 15.7146H14.1945C15.2478 15.7146 15.6471 15.6374 16.0587 15.4174C16.3998 15.2349 16.6632 14.9715 16.8457 14.6303C17.0399 14.2672 17.1228 13.9136 17.1396 13.1119L17.1429 12.7662V7.2344C17.1429 6.30856 17.0833 5.88799 16.9194 5.52029ZM14.1945 4.28599H5.80557C4.87973 4.28599 4.45915 4.34557 4.09146 4.50944L8.98986 9.40855C9.51839 9.93707 10.358 9.96489 10.9193 9.492L11.0102 9.40855L15.9086 4.50944C15.5409 4.34557 15.1203 4.28599 14.1945 4.28599Z" fill="#FC6A20"/>
</svg>
