<svg width="32" height="26" viewBox="0 0 32 26" fill="none" xmlns="http://www.w3.org/2000/svg">
<path d="M8.44997 0.142883L23.9412 0.145167C25.9661 0.169731 27.0225 0.395757 28.1182 0.98175C29.1804 1.5498 30.0216 2.39107 30.5897 3.45322C31.2123 4.61742 31.4286 5.73725 31.4286 8.02145V17.9786C31.4286 20.2628 31.2123 21.3826 30.5897 22.5468C30.0216 23.609 29.1804 24.4503 28.1182 25.0183C26.954 25.6409 25.8342 25.8572 23.55 25.8572H8.44997C6.16578 25.8572 5.04595 25.6409 3.88175 25.0183C2.8196 24.4503 1.97832 23.609 1.41028 22.5468C0.78766 21.3826 0.571411 20.2628 0.571411 17.9786L0.573695 7.63019C0.598258 5.60535 0.824285 4.54894 1.41028 3.45322C1.97832 2.39107 2.8196 1.5498 3.88175 0.98175C5.04595 0.359132 6.16578 0.142883 8.44997 0.142883ZM28.4549 4.93605L19.6365 13.7532C17.6951 15.6946 14.5875 15.7594 12.5683 13.9473L12.3634 13.7532L3.54505 4.93605C3.25008 5.5979 3.14284 6.35494 3.14284 8.02145V17.9786C3.14284 19.8746 3.28165 20.5934 3.6778 21.3341C4.00619 21.9482 4.4804 22.4224 5.09444 22.7508C5.74803 23.1003 6.38454 23.2495 7.82772 23.2798L8.44997 23.2857H23.55C25.446 23.2857 26.1648 23.1469 26.9055 22.7508C27.5196 22.4224 27.9938 21.9482 28.3222 21.3341C28.6717 20.6806 28.8209 20.044 28.8512 18.6009L28.8571 17.9786V8.02145C28.8571 6.35494 28.7499 5.5979 28.4549 4.93605ZM23.55 2.71431H8.44997C6.78346 2.71431 6.02643 2.82155 5.36458 3.11652L14.1817 11.9349C15.1331 12.8863 16.6444 12.9363 17.6547 12.0851L17.8183 11.9349L26.6354 3.11652C25.9735 2.82155 25.2165 2.71431 23.55 2.71431Z" fill="#FC6A20"/>
</svg>
