<svg width="22" height="32" viewBox="0 0 22 32" fill="none" xmlns="http://www.w3.org/2000/svg">
<path d="M9.71423 23.7143C9.00415 23.7143 8.42852 24.2899 8.42852 25C8.42852 25.7101 9.00415 26.2857 9.71423 26.2857H12.2857C12.9957 26.2857 13.5714 25.7101 13.5714 25C13.5714 24.2899 12.9957 23.7143 12.2857 23.7143H9.71423Z" fill="#FC6A20"/>
<path fill-rule="evenodd" clip-rule="evenodd" d="M0.714233 8.79998C0.714233 5.91971 0.714233 4.47958 1.27477 3.37946C1.76783 2.41177 2.55459 1.62501 3.52228 1.13195C4.6224 0.571411 6.06253 0.571411 8.9428 0.571411H13.0571C15.9374 0.571411 17.3775 0.571411 18.4776 1.13195C19.4453 1.62501 20.2321 2.41177 20.7251 3.37946C21.2857 4.47958 21.2857 5.91971 21.2857 8.79998V23.2C21.2857 26.0803 21.2857 27.5204 20.7251 28.6205C20.2321 29.5882 19.4453 30.375 18.4776 30.868C17.3775 31.4286 15.9374 31.4286 13.0571 31.4286H8.9428C6.06253 31.4286 4.6224 31.4286 3.52228 30.868C2.55459 30.375 1.76783 29.5882 1.27477 28.6205C0.714233 27.5204 0.714233 26.0803 0.714233 23.2V8.79998ZM8.9428 3.14284H13.0571C14.5397 3.14284 15.4969 3.14484 16.2255 3.20437C16.9241 3.26144 17.1831 3.35833 17.3102 3.42311C17.7941 3.66964 18.1874 4.06302 18.434 4.54686C18.4987 4.67401 18.5956 4.933 18.6527 5.63156C18.7122 6.36014 18.7142 7.31742 18.7142 8.79998V23.2C18.7142 24.6825 18.7122 25.6398 18.6527 26.3684C18.5956 27.067 18.4987 27.326 18.434 27.4531C18.1874 27.9369 17.7941 28.3303 17.3102 28.5769C17.1831 28.6416 16.9241 28.7385 16.2255 28.7956C15.4969 28.8551 14.5397 28.8571 13.0571 28.8571H8.9428C7.46024 28.8571 6.50296 28.8551 5.77438 28.7956C5.07582 28.7385 4.81683 28.6416 4.68969 28.5769C4.20584 28.3303 3.81246 27.9369 3.56593 27.4531C3.50115 27.326 3.40426 27.067 3.34719 26.3684C3.28766 25.6398 3.28566 24.6825 3.28566 23.2V8.79998C3.28566 7.31742 3.28766 6.36014 3.34719 5.63156C3.40426 4.933 3.50115 4.67401 3.56593 4.54686C3.81246 4.06302 4.20584 3.66964 4.68969 3.42311C4.81683 3.35833 5.07582 3.26144 5.77438 3.20437C6.50296 3.14484 7.46024 3.14284 8.9428 3.14284Z" fill="#FC6A20"/>
</svg>
