<svg width="22" height="22" viewBox="0 0 22 22" fill="none" xmlns="http://www.w3.org/2000/svg">
<path d="M10.2143 15.7141C9.78036 15.7141 9.42858 16.0659 9.42858 16.4999C9.42858 16.9338 9.78036 17.2856 10.2143 17.2856H11.7857C12.2197 17.2856 12.5714 16.9338 12.5714 16.4999C12.5714 16.0659 12.2197 15.7141 11.7857 15.7141H10.2143Z" fill="#FC6A20"/>
<path fill-rule="evenodd" clip-rule="evenodd" d="M4.71429 6.59986C4.71429 4.8397 4.71429 3.95961 5.05685 3.28732C5.35816 2.69595 5.83896 2.21516 6.43032 1.91384C7.10262 1.57129 7.9827 1.57129 9.74287 1.57129H12.2572C14.0173 1.57129 14.8974 1.57129 15.5697 1.91384C16.1611 2.21516 16.6419 2.69595 16.9432 3.28732C17.2857 3.95961 17.2857 4.8397 17.2857 6.59986V15.3999C17.2857 17.16 17.2857 18.0401 16.9432 18.7124C16.6419 19.3038 16.1611 19.7846 15.5697 20.0859C14.8974 20.4284 14.0173 20.4284 12.2572 20.4284H9.74287C7.9827 20.4284 7.10262 20.4284 6.43032 20.0859C5.83896 19.7846 5.35816 19.3038 5.05685 18.7124C4.71429 18.0401 4.71429 17.16 4.71429 15.3999V6.59986ZM9.74287 3.14272H12.2572C13.1632 3.14272 13.7482 3.14394 14.1934 3.18032C14.6203 3.2152 14.7786 3.2744 14.8563 3.31399C15.152 3.46465 15.3924 3.70505 15.543 4.00073C15.5826 4.07843 15.6418 4.2367 15.6767 4.6636C15.7131 5.10885 15.7143 5.69385 15.7143 6.59986V15.3999C15.7143 16.3059 15.7131 16.8909 15.6767 17.3361C15.6418 17.763 15.5826 17.9213 15.543 17.999C15.3924 18.2947 15.152 18.5351 14.8563 18.6857C14.7786 18.7253 14.6203 18.7845 14.1934 18.8194C13.7482 18.8558 13.1632 18.857 12.2572 18.857H9.74287C8.83685 18.857 8.25185 18.8558 7.80661 18.8194C7.37971 18.7845 7.22144 18.7253 7.14374 18.6857C6.84805 18.5351 6.60766 18.2947 6.457 17.999C6.41741 17.9213 6.3582 17.763 6.32332 17.3361C6.28694 16.8909 6.28572 16.3059 6.28572 15.3999V6.59986C6.28572 5.69385 6.28694 5.10885 6.32332 4.6636C6.3582 4.2367 6.41741 4.07843 6.457 4.00073C6.60766 3.70505 6.84805 3.46465 7.14374 3.31399C7.22144 3.2744 7.37971 3.2152 7.80661 3.18032C8.25185 3.14394 8.83685 3.14272 9.74287 3.14272Z" fill="#FC6A20"/>
</svg>
